HIERARCHY
ROOT Hips
{
    OFFSET   0.000000   0.000000   0.000000
    CHANNELS 6 Xposition Yposition Zposition Zrotation Xrotation Yrotation
    JOINT Chest
    {
        OFFSET   0.000000   8.007230   0.000000
        CHANNELS 3 Zrotation Xrotation Yrotation
        JOINT Chest2
        {
            OFFSET   0.000000  22.077100   0.000000
            CHANNELS 3 Zrotation Xrotation Yrotation
            JOINT Neck
            {
                OFFSET   0.000000  23.255100   0.000000
                CHANNELS 3 Zrotation Xrotation Yrotation
                JOINT Head
                {
                    OFFSET   0.000000  14.370100   1.956600
                    CHANNELS 3 Zrotation Xrotation Yrotation
                    End Site
                    {
                        OFFSET   0.000000  19.566000   0.000000
                    }
                }
            }
            JOINT LeftCollar
            {
                OFFSET   3.911900  19.017000  -0.467063
                CHANNELS 3 Zrotation Xrotation Yrotation
                JOINT LeftShoulder
                {
                    OFFSET  10.383700   0.000000   0.000000
                    CHANNELS 3 Zrotation Xrotation Yrotation
                    JOINT LeftElbow
                    {
                        OFFSET  26.662100   0.001193   0.000980
                        CHANNELS 3 Zrotation Xrotation Yrotation
                        JOINT LeftWrist
                        {
                            OFFSET  28.869000  -0.000059  -0.000082
                            CHANNELS 3 Zrotation Xrotation Yrotation
                            JOINT LeftFinger0
                            {
                                OFFSET   2.044650  -2.323450   3.252850
                                CHANNELS 3 Zrotation Xrotation Yrotation
                                JOINT LeftFinger01
                                {
                                    OFFSET   3.088130   0.000000   0.000000
                                    CHANNELS 3 Zrotation Xrotation Yrotation
                                    JOINT LeftFinger02
                                    {
                                        OFFSET   2.639460   0.000000   0.000000
                                        CHANNELS 3 Zrotation Xrotation Yrotation
                                        End Site
                                        {
                                            OFFSET   2.582190   0.000000   0.000000
                                        }
                                    }
                                }
                            }
                            JOINT LeftFinger1
                            {
                                OFFSET   8.364480   0.000000   3.252850
                                CHANNELS 3 Zrotation Xrotation Yrotation
                                JOINT LeftFinger11
                                {
                                    OFFSET   4.646930   0.000000   0.000000
                                    CHANNELS 3 Zrotation Xrotation Yrotation
                                    JOINT LeftFinger12
                                    {
                                        OFFSET   2.323470   0.000000   0.000000
                                        CHANNELS 3 Zrotation Xrotation Yrotation
                                        End Site
                                        {
                                            OFFSET   2.273050   0.000000   0.000000
                                        }
                                    }
                                }
                            }
                            JOINT LeftFinger2
                            {
                                OFFSET   8.364490   0.000016   1.078090
                                CHANNELS 3 Zrotation Xrotation Yrotation
                                JOINT LeftFinger21
                                {
                                    OFFSET   5.111610   0.000000   0.000000
                                    CHANNELS 3 Zrotation Xrotation Yrotation
                                    JOINT LeftFinger22
                                    {
                                        OFFSET   2.788150   0.000016   0.000000
                                        CHANNELS 3 Zrotation Xrotation Yrotation
                                        End Site
                                        {
                                            OFFSET   2.727660   0.000000   0.000000
                                        }
                                    }
                                }
                            }
                            JOINT LeftFinger3
                            {
                                OFFSET   7.899780   0.000015  -1.078090
                                CHANNELS 3 Zrotation Xrotation Yrotation
                                JOINT LeftFinger31
                                {
                                    OFFSET   4.646930   0.000000   0.000000
                                    CHANNELS 3 Zrotation Xrotation Yrotation
                                    JOINT LeftFinger32
                                    {
                                        OFFSET   2.323470   0.000000   0.000000
                                        CHANNELS 3 Zrotation Xrotation Yrotation
                                        End Site
                                        {
                                            OFFSET   2.273050   0.000000   0.000000
                                        }
                                    }
                                }
                            }
                            JOINT LeftFinger4
                            {
                                OFFSET   7.435090   0.000000  -3.252850
                                CHANNELS 3 Zrotation Xrotation Yrotation
                                JOINT LeftFinger41
                                {
                                    OFFSET   3.717550   0.000000   0.000000
                                    CHANNELS 3 Zrotation Xrotation Yrotation
                                    JOINT LeftFinger42
                                    {
                                        OFFSET   1.858770   0.000000   0.000000
                                        CHANNELS 3 Zrotation Xrotation Yrotation
                                        End Site
                                        {
                                            OFFSET   1.818440   0.000000   0.000000
                                        }
                                    }
                                }
                            }
                        }
                    }
                }
            }
            JOINT RightCollar
            {
                OFFSET  -3.911910  19.017000  -0.467062
                CHANNELS 3 Zrotation Xrotation Yrotation
                JOINT RightShoulder
                {
                    OFFSET -10.383700   0.000014   0.000000
                    CHANNELS 3 Zrotation Xrotation Yrotation
                    JOINT RightElbow
                    {
                        OFFSET -26.662100   0.001225   0.001091
                        CHANNELS 3 Zrotation Xrotation Yrotation
                        JOINT RightWrist
                        {
                            OFFSET -28.869000  -0.000020  -0.000085
                            CHANNELS 3 Zrotation Xrotation Yrotation
                            JOINT RightFinger0
                            {
                                OFFSET  -2.044650  -2.323490   3.252850
                                CHANNELS 3 Zrotation Xrotation Yrotation
                                JOINT RightFinger01
                                {
                                    OFFSET  -3.088130   0.000000   0.000000
                                    CHANNELS 3 Zrotation Xrotation Yrotation
                                    JOINT RightFinger02
                                    {
                                        OFFSET  -2.639460   0.000000   0.000000
                                        CHANNELS 3 Zrotation Xrotation Yrotation
                                        End Site
                                        {
                                            OFFSET  -2.582190   0.000000   0.000000
                                        }
                                    }
                                }
                            }
                            JOINT RightFinger1
                            {
                                OFFSET  -8.364480   0.000000   3.252850
                                CHANNELS 3 Zrotation Xrotation Yrotation
                                JOINT RightFinger11
                                {
                                    OFFSET  -4.646930   0.000000   0.000000
                                    CHANNELS 3 Zrotation Xrotation Yrotation
                                    JOINT RightFinger12
                                    {
                                        OFFSET  -2.323470   0.000000   0.000000
                                        CHANNELS 3 Zrotation Xrotation Yrotation
                                        End Site
                                        {
                                            OFFSET  -2.273050   0.000000   0.000000
                                        }
                                    }
                                }
                            }
                            JOINT RightFinger2
                            {
                                OFFSET  -8.364480   0.000000   1.078090
                                CHANNELS 3 Zrotation Xrotation Yrotation
                                JOINT RightFinger21
                                {
                                    OFFSET  -5.111620   0.000000   0.000000
                                    CHANNELS 3 Zrotation Xrotation Yrotation
                                    JOINT RightFinger22
                                    {
                                        OFFSET  -2.788160   0.000000   0.000000
                                        CHANNELS 3 Zrotation Xrotation Yrotation
                                        End Site
                                        {
                                            OFFSET  -2.727660   0.000000   0.000000
                                        }
                                    }
                                }
                            }
                            JOINT RightFinger3
                            {
                                OFFSET  -7.899780   0.000000  -1.078090
                                CHANNELS 3 Zrotation Xrotation Yrotation
                                JOINT RightFinger31
                                {
                                    OFFSET  -4.646930   0.000000   0.000000
                                    CHANNELS 3 Zrotation Xrotation Yrotation
                                    JOINT RightFinger32
                                    {
                                        OFFSET  -2.323470   0.000000   0.000000
                                        CHANNELS 3 Zrotation Xrotation Yrotation
                                        End Site
                                        {
                                            OFFSET  -2.273050   0.000000   0.000000
                                        }
                                    }
                                }
                            }
                            JOINT RightFinger4
                            {
                                OFFSET  -7.435090   0.000000  -3.252850
                                CHANNELS 3 Zrotation Xrotation Yrotation
                                JOINT RightFinger41
                                {
                                    OFFSET  -3.717550   0.000000   0.000000
                                    CHANNELS 3 Zrotation Xrotation Yrotation
                                    JOINT RightFinger42
                                    {
                                        OFFSET  -1.858760   0.000000   0.000000
                                        CHANNELS 3 Zrotation Xrotation Yrotation
                                        End Site
                                        {
                                            OFFSET  -1.818440   0.000000   0.000000
                                        }
                                    }
                                }
                            }
                        }
                    }
                }
            }
        }
    }
    JOINT LeftHip
    {
        OFFSET   9.783030   0.000000   0.000000
        CHANNELS 3 Zrotation Xrotation Yrotation
        JOINT LeftKnee
        {
            OFFSET   0.000063 -41.789100   0.000608
            CHANNELS 3 Zrotation Xrotation Yrotation
            JOINT LeftAnkle
            {
                OFFSET   0.000048 -41.133200  -0.000184
                CHANNELS 3 Zrotation Xrotation Yrotation
                JOINT LeftToe
                {
                    OFFSET   0.000000  -6.358960  14.674500
                    CHANNELS 3 Zrotation Xrotation Yrotation
                    End Site
                    {
                        OFFSET   0.000000   0.000000   3.913200
                    }
                }
            }
        }
    }
    JOINT RightHip
    {
        OFFSET  -9.783030   0.000000   0.000000
        CHANNELS 3 Zrotation Xrotation Yrotation
        JOINT RightKnee
        {
            OFFSET   0.000071 -41.789100   0.001239
            CHANNELS 3 Zrotation Xrotation Yrotation
            JOINT RightAnkle
            {
                OFFSET   0.000037 -41.133200  -0.000166
                CHANNELS 3 Zrotation Xrotation Yrotation
                JOINT RightToe
                {
                    OFFSET   0.000000  -6.358960  14.674500
                    CHANNELS 3 Zrotation Xrotation Yrotation
                    End Site
                    {
                        OFFSET   0.000000   0.000000   3.913200
                    }
                }
            }
        }
    }
}
MOTION
Frames: 4
Frame Time:   0.016667
  0.398050  89.547300  -0.674689  -0.390740  -2.597810  -0.872228   0.683914   2.584540  -1.031480   1.416510   5.156180  -2.097010  -1.402560   0.300908   0.012381  -2.314710   0.609160   6.335020  -6.140150   0.284262  10.147300 -77.435100   6.484960   5.456070  -0.200214   1.690750 -17.818400   6.265270 -12.064300  -1.399900  47.659800  44.913900 -77.128600 -32.681500   0.009167   0.005913 -11.341900   0.008476   0.005493 -30.854300  -0.850908   1.423990 -25.253100  -0.004219   0.002510 -17.677200  -0.004698  -0.006801 -29.373800  -3.749450   6.620650 -44.386500  -0.000064   0.002650 -29.561400   0.005517  -0.003468 -27.814300  -3.915290   7.371280 -32.519400  -0.002333   0.000835 -21.657900  -0.003110   0.000474 -29.103100  -5.233390   9.305600 -44.293800   0.003261  -0.004054 -29.499700  -0.001127  -0.004293   8.771310   3.926390   8.280790  69.330700   0.149184  -2.656130   4.142310  -6.967060  11.629300 -15.328400  -5.489610  -1.275420 -42.694200  36.206100  68.984600  28.419500   0.000910  -0.000432   9.209720   0.000431  -0.004545  33.165200   0.555362   0.849673  27.141100   0.000058  -0.003172  18.998800  -0.003575  -0.001653  28.699500  -0.707843  -1.293230  39.002400  -0.000723   0.003240  25.975600  -0.002527  -0.001520  28.615200  -2.184820  -3.997690  38.837000  -0.004127   0.000567  25.865400   0.000341  -0.001544  37.416400  -2.858360  -3.728110  56.263800  -0.001682  -0.000951  37.471700  -0.001261  -0.002702   2.522330   3.001170   0.207623   0.175360   0.913551  10.725400  -3.694090  -1.918590  -1.133790   0.000000   0.000000   0.000000  -0.764211   3.368890  -3.111760   0.471914   3.192430 -17.921700   1.047880  -3.372890  -2.551800  -0.000000   0.000000  -0.000000
  0.404102  89.547300  -0.674827  -0.390468  -2.615510  -0.861982   0.690254   2.593410  -1.031820   1.429390   5.173760  -2.098060  -1.412130   0.314929   0.012306  -2.325950   0.637341   6.346190  -6.140150   0.284286  10.157700 -77.449100   6.493980   5.437690  -0.216843   1.714090 -17.838600   6.208320 -11.998500  -1.429730  47.649400  44.904800 -77.141300 -32.674800   0.009163   0.005954 -11.338000   0.008481   0.005484 -30.842200  -0.854037   1.429910 -25.243200  -0.004214   0.002511 -17.670300  -0.004698  -0.006799 -29.370100  -3.749420   6.620590 -44.380900  -0.000065   0.002659 -29.557700   0.005516  -0.003455 -27.811500  -3.925650   7.392170 -32.493000  -0.002333   0.000840 -21.640300  -0.003110   0.000479 -29.088600  -5.240530   9.323520 -44.274100   0.003261  -0.004043 -29.486600  -0.001137  -0.004294   8.756260   3.935560   8.287230  69.322100   0.143351  -2.624770   4.141760  -6.966610  11.655700 -15.328600  -5.491160  -1.274860 -42.707900  36.200700  68.966300  28.403600   0.000916  -0.000406   9.201790   0.000430  -0.004544  33.165600   0.555285   0.849551  27.141100   0.000059  -0.003170  18.998800  -0.003577  -0.001653  28.699500  -0.705620  -1.289150  39.009100  -0.000720   0.003243  25.980000  -0.002525  -0.001518  28.615100  -2.185140  -3.998180  38.844400  -0.004127   0.000569  25.870300   0.000341  -0.001544  37.417000  -2.854190  -3.722920  56.263800  -0.001681  -0.000949  37.471700  -0.001261  -0.002705   2.521580   3.015210   0.215684   0.175391   0.911283  10.710400  -3.693870  -1.916280  -1.137970   0.000000   0.000000  -0.000000  -0.775656   3.357460  -3.108810   0.481582   3.236870 -17.932500   1.052420  -3.380250  -2.551820   0.000000   0.000000  -0.000000
  0.413310  89.547200  -0.674965  -0.389941  -2.646550  -0.842677   0.701085   2.608290  -1.034130   1.451480   5.203260  -2.103430  -1.426050   0.341685   0.012198  -2.343090   0.691248   6.364740  -6.140240   0.284500  10.180200 -77.476200   6.529570   5.402500  -0.242818   1.748620 -17.870400   6.150750 -11.908300  -1.465860  47.639100  44.895700 -77.154100 -32.664300   0.009158   0.005994 -11.332100   0.008486   0.005474 -30.822000  -0.860615   1.442060 -25.226900  -0.004202   0.002512 -17.658800  -0.004698  -0.006795 -29.364600  -3.749360   6.620490 -44.372500  -0.000066   0.002681 -29.552100   0.005514  -0.003422 -27.807100  -3.942030   7.425200 -32.451600  -0.002334   0.000856 -21.612700  -0.003110   0.000491 -29.064000  -5.251090   9.351180 -44.240600   0.003262  -0.004015 -29.464200  -0.001163  -0.004296   8.733710   3.951500   8.300040  69.305100   0.137520  -2.570170   4.139690  -6.965830  11.694900 -15.330300  -5.502020  -1.274310 -42.720200  36.198300  68.945600  28.387700   0.000922  -0.000379   9.193860   0.000426  -0.004544  33.168400   0.554747   0.848695  27.141100   0.000060  -0.003167  18.998800  -0.003579  -0.001649  28.699600  -0.702075  -1.282630  39.023400  -0.000711   0.003252  25.989600  -0.002521  -0.001515  28.615000  -2.185460  -3.998670  38.858900  -0.004129   0.000573  25.880000   0.000343  -0.001545  37.417900  -2.847620  -3.714770  56.263700  -0.001677  -0.000945  37.471600  -0.001258  -0.002709   2.520480   3.042470   0.229220   0.175882   0.907418  10.685700  -3.693840  -1.913960  -1.147540   0.000000   0.000000  -0.000000  -0.787485   3.346040  -3.099280   0.495487   3.295550 -17.954500   1.059570  -3.392860  -2.551890  -0.000000   0.000000  -0.000000
  0.418913  89.547200  -0.673867  -0.389356  -2.675110  -0.822093   0.710674   2.621110  -1.040070   1.471220   5.228660  -2.115990  -1.433910   0.369169   0.012146  -2.353250   0.746851   6.380330  -6.141920   0.292899  10.212200 -77.505800   6.603570   5.367000  -0.262227   1.758030 -17.895900   6.150300 -11.876400  -1.473210  47.667100  44.892700 -77.127400 -32.655400   0.009164   0.005955 -11.327600   0.008479   0.005490 -30.802200  -0.868974   1.457220 -25.210800  -0.004185   0.002519 -17.647500  -0.004697  -0.006791 -29.361100  -3.749270   6.620390 -44.367200  -0.000064   0.002710 -29.548500   0.005511  -0.003373 -27.804100  -3.952890   7.447440 -32.417800  -0.002334   0.000883 -21.590200  -0.003110   0.000506 -29.039200  -5.255730   9.369020 -44.204800   0.003262  -0.003971 -29.440400  -0.001202  -0.004297   8.720710   3.966450   8.316060  69.284400   0.138921  -2.517980   4.136190  -6.965260  11.715800 -15.347600  -5.534600  -1.281850 -42.727000  36.211100  68.945400  28.392200   0.000909  -0.000388   9.196290   0.000420  -0.004551  33.175600   0.550787   0.842413  27.146000   0.000061  -0.003165  19.002200  -0.003582  -0.001641  28.699600  -0.699007  -1.276960  39.039400  -0.000694   0.003265  26.000200  -0.002517  -0.001512  28.615300  -2.183240  -3.994520  38.871600  -0.004131   0.000577  25.888500   0.000346  -0.001547  37.417900  -2.843220  -3.709720  56.263800  -0.001671  -0.000941  37.471700  -0.001252  -0.002710   2.519790   3.072840   0.240188   0.176884   0.905185  10.666600  -3.694670  -1.915650  -1.161240  -0.000000   0.000000   0.000000  -0.783444   3.374360  -3.080660   0.500714   3.308730 -17.981000   1.064040  -3.404080  -2.557750  -0.000000   0.000000  -0.000000
